<?xml version="1.0" encoding="UTF-8" standalone="no"?>
<!-- Created with Inkscape (http://www.inkscape.org/) -->

<svg
   version="1.1"
   id="svg1038"
   width="48.445217"
   height="51.021454"
   viewBox="0 0 48.445218 51.021454"
   sodipodi:docname="leaf.svg"
   inkscape:version="1.1.1 (3bf5ae0d25, 2021-09-20)"
   xmlns:inkscape="http://www.inkscape.org/namespaces/inkscape"
   xmlns:sodipodi="http://sodipodi.sourceforge.net/DTD/sodipodi-0.dtd"
   xmlns="http://www.w3.org/2000/svg"
   xmlns:svg="http://www.w3.org/2000/svg">
  <defs
     id="defs1042" />
  <sodipodi:namedview
     id="namedview1040"
     pagecolor="#ffffff"
     bordercolor="#666666"
     borderopacity="1.0"
     inkscape:pageshadow="2"
     inkscape:pageopacity="0.0"
     inkscape:pagecheckerboard="0"
     showgrid="false"
     showguides="false"
     inkscape:zoom="1.0235742"
     inkscape:cx="-25.889673"
     inkscape:cy="225.19131"
     inkscape:window-width="1920"
     inkscape:window-height="991"
     inkscape:window-x="-9"
     inkscape:window-y="-9"
     inkscape:window-maximized="1"
     inkscape:current-layer="g1044" />
  <g
     inkscape:groupmode="layer"
     inkscape:label="Image"
     id="g1044"
     transform="translate(-207.98067,-58.038693)">
    <path
       id="path1120-6"
       style="fill:#1f241c;stroke:#000000;stroke-width:0.103986px;stroke-linecap:butt;stroke-linejoin:miter;stroke-opacity:1"
       d="m 223.46673,90.818921 6.48155,4.966193 c 0,0 7.40518,4.400566 7.65763,4.530556 0.25246,0.12998 2.80851,1.34388 2.80851,1.34388 0,0 0.26221,-0.0502 0.17348,-0.064 -0.0887,-0.0138 -5.7782,-3.875842 -5.7782,-3.875842 l -5.34875,-4.536221 c 0,0 -5.60416,-5.702543 -6.41,-6.717911 -0.80584,-1.015367 -3.36605,-4.665129 -3.36605,-4.665129 0,0 -2.05982,-3.008847 -2.93187,-4.652368 -0.87206,-1.643521 -2.36221,-4.927553 -2.67813,-5.703441 -0.31592,-0.775888 -1.55113,-3.711467 -1.6641,-4.03792 -0.11297,-0.326452 -1.20168,-3.620969 -1.20168,-3.620969 0,0 -0.69832,-1.943717 -0.66179,-2.883067 0.10274,-1.172635 0.22621,-2.433338 1.51585,-2.745513 0.47118,-0.108715 1.02684,-0.05896 1.20156,-0.01371 0.17472,0.04525 0.45043,0.142493 0.68763,0.488196 0.2372,0.345704 0.4169,0.827884 0.40839,1.117338 -0.008,0.289454 -0.23952,1.78021 -0.21331,2.783802 0.0262,1.003593 0.22237,2.669585 0.4548,3.632442 0.23243,0.962856 1.37563,4.374855 1.83301,5.645171 0.45739,1.270314 1.51864,3.452005 1.57313,3.569489 0.0545,0.117484 0.58161,1.289568 0.58161,1.289568 l -0.0232,0.03274 0.0887,0.01375 c 0,0 0.2525,-1.160307 0.44823,-1.60248 1.11241,-2.188875 3.3159,-4.470739 5.44459,-5.698658 1.46374,-0.809487 3.00125,-1.453924 4.67557,-1.674321 0.14748,-0.01349 0.79888,-0.112454 0.79888,-0.112454 v 0 0 m 0,0 c 0,0 1.58675,-0.15392 2.79631,0.01534 1.20955,0.169267 2.03941,0.443253 2.55532,0.63224 0.51591,0.188988 2.13038,0.911681 2.90949,1.395882 0.77911,0.4842 2.98645,2.189259 3.60708,2.75794 0.62064,0.568682 2.18633,2.192479 2.81895,3.035619 0.63262,0.843138 1.2395,1.500555 2.34725,3.616759 1.10775,2.116205 2.22822,5.088524 2.35619,5.435473 0.12797,0.34695 0.4059,0.898873 0.99821,3.643959 0.59232,2.745086 1.27104,7.629837 1.377,8.118764 0.10597,0.488926 0.42984,2.738082 0.82547,4.289602 0.39563,1.55152 1.03947,3.37775 1.67183,4.4571 0.63236,1.07935 2.03833,2.6784 2.03833,2.6784 0,0 -3.40723,0.52605 -5.73137,0.74743 -2.32414,0.22138 -4.88174,0.42476 -7.26986,0.47267 -2.38813,0.0479 -3.17476,0.19861 -6.52922,-0.085 -3.35446,-0.28357 -5.37789,-0.36088 -7.45554,-0.79189 -2.07766,-0.431 -3.78262,-0.80425 -5.22538,-1.22774 -1.44276,-0.42348 -1.87268,-0.58097 -3.2607,-1.12318 -1.38801,-0.54221 -3.33666,-1.57112 -3.91931,-1.91584 -0.58264,-0.34471 -3.17217,-2.16352 -3.2444,-2.28375 -0.0722,-0.12023 -1.27401,-1.16061 -1.66269,-1.584307 -0.38867,-0.423697 -1.32273,-1.5498 -1.35273,-1.590795 -0.03,-0.04099 -0.64486,-0.881383 -0.83157,-1.20109 -0.18671,-0.319705 -0.4469,-0.868878 -0.59812,-1.183084 -0.15121,-0.314205 -0.5951,-1.437044 -0.71607,-1.946467 -0.12096,-0.509424 -0.37638,-1.675748 -0.41011,-2.04444 -0.2722,-2.50467 0.1023,-4.539335 1.26505,-6.873369 0.9037,-1.88748 1.98095,-2.942253 3.57933,-4.226185 l 1.14486,-0.711554 c 0,0 0.79606,1.213522 3.03237,3.904426 2.2363,2.690902 6.12879,6.656162 6.32801,6.777898"
       sodipodi:nodetypes="ccscsccscssscccsssssssccccccccccssssssssssscsssssssssssssccccsc" />
  </g>
</svg>
